<svg width="68" height="68" viewBox="0 0 68 68" fill="none" xmlns="http://www.w3.org/2000/svg">
<rect width="68" height="68" rx="19" fill="#F5F5F5"/>
<path d="M16 29V20C25.6 22.5723 43.3333 21.0718 51 20V29C49.8333 29.1667 47.5 30.2 47.5 33C47.5 35.8 49.8333 37.1667 51 37.5V47C48.3048 46.2778 45.2214 45.841 42 45.6108C32.3129 44.9187 21.3782 46.0951 16 47V37.5C17.1667 37 19.5 35.4 19.5 33C19.5 30.6 17.1667 29.3333 16 29Z" fill="white" stroke="black" stroke-width="2" stroke-linecap="round"/>
<path d="M41.5 45V39.5" stroke="black" stroke-width="2"/>
<path d="M41.5 36V30.5" stroke="black" stroke-width="2"/>
<path d="M41.5 27V21.5" stroke="black" stroke-width="2"/>
</svg>
