<svg width="68" height="68" viewBox="0 0 68 68" fill="none" xmlns="http://www.w3.org/2000/svg">
<rect width="68" height="68" rx="19" fill="#F5F5F5"/>
<path d="M37 47.5H19L21.5 20.5H47.5L48.5 29" stroke="black" stroke-width="2"/>
<path d="M41.1305 40.1303C46.2073 40.1303 49.0537 40.1303 54.1305 40.1303C54.1305 37.8722 52.7 33 47.5 33C42.3 33 41.1666 37.3548 41.1666 39.2903C40.9999 42.1935 41 48 47.5 48C51.5 48 54 45.5806 54 44.129" stroke="black" stroke-width="3.53"/>
<path d="M30 24V16.5C30.1667 15.3333 31.4 13 35 13C38.6 13 40.1667 15.3333 40.5 16.5V24" stroke="black" stroke-width="2"/>
</svg>
