<svg width="68" height="68" viewBox="0 0 68 68" fill="none" xmlns="http://www.w3.org/2000/svg">
<rect width="68" height="68" rx="19" fill="#F5F5F5"/>
<path d="M16 37L33 24.5C32.7978 26.9269 33.025 29.4766 33.5163 32C34.5344 37.2297 36.6865 42.3469 38.5 46.0262C40.1382 49.3497 41.5 51.5 41.5 51.5L38.5 53.5C37.4066 52.2446 35.9413 50.6724 34.2461 49C31.1439 45.9396 27.2718 42.5435 23.5 40.1391C20.8499 38.4497 18.2493 37.2499 16 37Z" fill="white"/>
<path d="M23.5 40.1391C20.8499 38.4497 18.2493 37.2499 16 37L33 24.5C32.7978 26.9269 33.025 29.4766 33.5163 32M23.5 40.1391L33.5163 32M23.5 40.1391C27.2718 42.5435 31.1439 45.9396 34.2461 49M33.5163 32C34.5344 37.2297 36.6865 42.3469 38.5 46.0262M34.2461 49C35.9413 50.6724 37.4066 52.2446 38.5 53.5L41.5 51.5C41.5 51.5 40.1382 49.3497 38.5 46.0262M34.2461 49L38.5 46.0262M33 15C31.6667 15.3333 29.1 16.7 29.5 19.5M44 22.5H50.5M47.5 19.5V25" stroke="black" stroke-width="2"/>
<path d="M52.5 37.5L39.5 27.5L38.675 33L47.3771 40.3956L52.5 37.5Z" fill="white"/>
<path d="M38 37.5L38.675 33M41 44L52.5 37.5L39.5 27.5L38.675 33M38.675 33L47.5 40.5" stroke="black" stroke-width="2" stroke-linecap="round"/>
<circle cx="19.5" cy="25" r="2" fill="#F7E219" stroke="black" stroke-width="2"/>
</svg>
