<svg width="68" height="68" viewBox="0 0 68 68" fill="none" xmlns="http://www.w3.org/2000/svg">
<rect width="68" height="68" rx="19" fill="#F5F5F5"/>
<path d="M50.5 22.9578H18C20 30.1578 18.8333 43.2911 18 48.9578H50.5C50.5 48.9578 47.5 32.9578 50.5 22.9578Z" fill="white" stroke="black" stroke-width="2"/>
<path d="M29.5 22.9578C23 20.4578 26.5 15.4578 26.5 15.4578C30 11.4578 34 16.9578 34 16.9578C39.5 10.4578 42.5 16.9578 42.5 16.9578C43 18.9578 42 22.9578 39.5 22.9578H34H29.5Z" fill="white"/>
<path d="M19.5 35.9578H49M34 16.9578V48.9578M34 16.9578C34 16.9578 30 11.4578 26.5 15.4578C26.5 15.4578 23 20.4578 29.5 22.9578C31.3333 22.9578 35.5 22.9578 39.5 22.9578C42 22.9578 43 18.9578 42.5 16.9578C42.5 16.9578 39.5 10.4578 34 16.9578Z" stroke="black" stroke-width="2"/>
</svg>
