<svg width="68" height="68" viewBox="0 0 68 68" fill="none" xmlns="http://www.w3.org/2000/svg">
<rect width="68" height="68" rx="19" fill="#F5F5F5"/>
<path d="M33 33C33 33.5523 33.4477 34 34 34C34.5523 34 35 33.5523 35 33H34H33ZM34 24H33V33H34H35V24H34Z" fill="black"/>
<path d="M48.7625 29.6234L52 32L55 29.5" stroke="black" stroke-width="2" stroke-linecap="round"/>
<path d="M37.2191 38.6247C37.5641 39.0559 38.1934 39.1259 38.6247 38.7809C39.056 38.4358 39.1259 37.8066 38.7809 37.3753L38 38L37.2191 38.6247ZM34 33L33.2191 33.6247L37.2191 38.6247L38 38L38.7809 37.3753L34.7809 32.3753L34 33Z" fill="black"/>
<path d="M51.554 36C49.735 44.016 42.5663 50 34 50C24.0589 50 16 41.9411 16 32C16 22.0589 24.0589 14 34 14C43.8386 14 51.6226 22.1927 51.9731 31.5" stroke="black" stroke-width="2" stroke-linecap="round"/>
</svg>
