<svg width="174" height="20" viewBox="0 0 174 20" xmlns="http://www.w3.org/2000/svg">
<path d="M11.5833 6.13411V0.625H18.0208V11.25C18.0208 15.9375 14.6354 19.375 10 19.375C5.36458 19.375 1.97917 15.9375 1.97917 11.25V0.625H8.41667V6.13411C8.41667 6.30799 8.44184 6.48021 8.49089 6.64335C8.53994 6.80649 8.61208 6.95833 8.70312 7.08993C8.79417 7.22153 8.90208 7.33056 9.0191 7.41076C9.13611 7.49097 9.2599 7.54097 9.38542 7.55903C9.51094 7.57708 9.63542 7.56458 9.75 7.52292C9.86458 7.48125 9.96528 7.41111 10.0451 7.31667C10.125 7.22222 10.1823 7.10625 10.2135 6.97917C10.2448 6.85208 10.25 6.71875 10.2292 6.58333C10.7083 6.625 11.1354 6.47708 11.5833 6.13411Z" />
<path d="M26.4158 19.375H20V0.625H26.4158V4.60417H23.0304V7.89583H26.1033V11.875H23.0304V15.3958H26.4158V19.375Z" />
<path d="M38.8955 19.375H32.4792V0.625H38.8955V19.375ZM34.208 4.60417V15.3958H37.1663V4.60417H34.208Z" />
<path d="M47.3333 19.375H40.9167V0.625H47.3333V19.375ZM42.6458 4.60417V15.3958H45.6042V4.60417H42.6458Z" />
<path d="M55.7708 19.375H49.3542V0.625H55.7708V19.375ZM51.0833 4.60417V15.3958H54.0417V4.60417H51.0833Z" />
<path d="M64.2083 19.375H57.7917V0.625H64.2083V4.60417H60.8229V15.3958H64.2083V19.375Z" />
<path d="M78.6979 11.1667L77.1042 9.57292C77.5833 9.03125 77.9688 8.44792 78.2604 7.82292H72.5V4.60417H79.6875V5.89583C79.1667 7.02083 78.5312 8.04167 77.7812 8.95833L80.3125 11.4896L78.6979 11.1667ZM72.5 19.375V11.6667H75.7917L72.5 15.0521V19.375Z" />
<path d="M85.4992 19.375H81.2492V12.1667H84.145V8.20833H81.2492V4.58333H85.4992V0.625H76.9992V19.375H85.4992Z" />
<path d="M103.542 19.375H97.125V0.625H103.542V4.60417H100.156V7.89583H103.229V11.875H100.156V15.3958H103.542V19.375Z" />
<path d="M109.958 19.375H105.708L108.604 12.1667H105.708L108.604 8.20833H105.708V4.58333H109.958V0.625H101.458V19.375H109.958Z" />
<path d="M127.999 19.375H121.583V0.625H127.999V4.60417H124.614V7.89583H127.687V11.875H124.614V15.3958H127.999V19.375Z" />
<path d="M136.437 19.375H130.02V0.625H136.437V19.375ZM131.75 4.60417V15.3958H134.708V4.60417H131.75Z" />
<path d="M152.019 15.4792L149.061 19.375H145.436L150.228 12.8333C148.696 12.0833 147.53 11.0521 146.728 9.73958C145.926 8.42708 145.525 6.94792 145.525 5.30208C145.525 3.71875 145.952 2.36458 146.806 1.23958C147.66 0.114583 148.848 0.0520833 150.369 0.625L151.061 4.52083C150.092 4.14583 149.332 4.15625 148.78 4.55208C148.228 4.94792 147.952 5.59375 147.952 6.48958C147.952 7.25 148.152 7.91667 148.551 8.48958C148.95 9.0625 149.535 9.47917 150.306 9.73958L153.931 11.0312L152.019 15.4792Z" />
<path d="M162.436 19.375H156.02L160.811 12.8333C159.28 12.0833 158.113 11.0521 157.311 9.73958C156.509 8.42708 156.108 6.94792 156.108 5.30208C156.108 3.71875 156.535 2.36458 157.389 1.23958C158.243 0.114583 159.431 0.0520833 160.952 0.625L161.644 4.52083C160.675 4.14583 159.915 4.15625 159.363 4.55208C158.811 4.94792 158.535 5.59375 158.535 6.48958C158.535 7.25 158.735 7.91667 159.134 8.48958C159.533 9.0625 160.118 9.47917 160.889 9.73958L164.514 11.0312L162.436 19.375Z" />
<path d="M172.436 19.375H166.02L170.811 12.8333C169.28 12.0833 168.113 11.0521 167.311 9.73958C166.509 8.42708 166.108 6.94792 166.108 5.30208C166.108 3.71875 166.535 2.36458 167.389 1.23958C168.243 0.114583 169.431 0.0520833 170.952 0.625L171.644 4.52083C170.675 4.14583 169.915 4.15625 169.363 4.55208C168.811 4.94792 168.535 5.59375 168.535 6.48958C168.535 7.25 168.735 7.91667 169.134 8.48958C169.533 9.0625 170.118 9.47917 170.889 9.73958L174.514 11.0312L172.436 19.375Z" />
</svg>
