<svg width="200" height="25" viewBox="0 0 190 25" fill="none" xmlns="http://www.w3.org/2000/svg">
<g clip-path="url(#clip0_1063_2)">
<path d="M17.5729 2.12663C14.7586 -0.709202 10.1471 -0.709202 7.32451 2.12663L2.11734 7.35663C-0.706107 10.1916 -0.706107 14.8233 2.11734 17.65L7.32451 22.88C10.1388 25.7066 14.7586 25.7066 17.5729 22.88L22.7801 17.65C25.6027 14.815 25.6027 10.1833 22.7801 7.35663L17.5729 2.12663ZM9.39376 20.185H9.35809C9.15948 20.1852 8.96843 20.1085 8.82471 19.9708C8.68098 19.8331 8.59565 19.6451 8.58647 19.4458C8.5818 19.3445 8.59731 19.2434 8.63207 19.1482C8.66683 19.0531 8.72016 18.9658 8.78892 18.8916C8.92831 18.7428 9.11997 18.6543 9.32324 18.645C9.5264 18.6377 9.72419 18.7113 9.87364 18.8497C10.0231 18.9881 10.1121 19.1802 10.1214 19.3841C10.1286 19.5883 10.0552 19.7871 9.91726 19.9372C9.77928 20.0874 9.58786 20.1767 9.38464 20.1858H9.39293L9.39376 20.185ZM18.6424 16.9541C17.5812 18.645 16.1873 19.825 14.9079 20.1241H14.8722C14.6358 20.1683 14.4076 20.1858 14.1886 20.1858C13.3647 20.1858 12.7781 19.8691 12.3657 19.5958C11.9298 19.2992 11.5447 18.9333 11.2257 18.5125C9.02538 15.6683 8.87603 10.3508 8.86774 9.75163C8.84119 8.33413 9.0428 6.41413 10.1471 5.32246C10.6823 4.7858 11.3568 4.51246 12.1467 4.51246H12.2778C13.066 4.51246 13.7414 4.7858 14.2856 5.32246C15.3891 6.4233 15.5916 8.34246 15.565 9.75163C15.5385 11.2308 15.2672 14.0841 13.7505 16.6458C13.6891 16.7493 13.6016 16.8347 13.4969 16.8935C13.3922 16.9523 13.2739 16.9824 13.1539 16.9808C13.0308 16.9799 12.9101 16.9466 12.8038 16.8841C12.6476 16.7887 12.5352 16.6353 12.4909 16.4571C12.4466 16.2789 12.4741 16.0904 12.5673 15.9325C13.6368 14.1366 14.1454 12.1641 14.1886 9.72496C14.2151 8.10496 13.9081 6.88996 13.3124 6.29996C13.0403 6.02746 12.6984 5.89496 12.2778 5.89496H12.155C11.7343 5.89496 11.3917 6.02746 11.1204 6.29996C10.5329 6.88996 10.2176 8.10496 10.2525 9.72496C10.2873 11.7241 10.7611 15.6416 12.3218 17.6583C12.5756 17.9841 12.8478 18.2483 13.1282 18.4333C13.3995 18.6183 13.7156 18.7941 14.1977 18.7941C14.3288 18.7941 14.4698 18.7858 14.6183 18.7591C15.5128 18.5391 16.6345 17.5441 17.4766 16.2058C17.5383 16.1053 17.6248 16.0225 17.7277 15.9656C17.8307 15.9086 17.9465 15.8794 18.0641 15.8808C18.2204 15.8803 18.3722 15.9332 18.4948 16.0306C18.6173 16.1281 18.7033 16.2645 18.7386 16.4175C18.7599 16.5054 18.7632 16.5968 18.7482 16.6861C18.7333 16.7753 18.7003 16.8606 18.6515 16.9366L18.6424 16.9541ZM44.5745 7.87663C41.1553 7.87663 39.1035 9.9983 39.1035 12.6316C39.1035 15.2641 41.1553 17.3775 44.5745 17.3775C47.9928 17.3775 50.0538 15.255 50.0538 12.6308C50.0538 10.0075 48.0019 7.87663 44.5745 7.87663ZM44.5745 16.3558C42.9433 16.3558 41.6896 14.6916 41.6896 12.64C41.6896 10.5883 42.9433 8.90663 44.5745 8.90663C46.2048 8.90663 47.4676 10.58 47.4676 12.64C47.4676 14.7008 46.2139 16.3558 44.5745 16.3558ZM50.5184 9.2858H54.1209V16.9816H56.839V9.2858H59.8807V8.22913H50.5184V9.2858ZM60.8713 9.2858H63.9138V16.9816H66.6311V9.2858H70.2427V8.22913H60.8713V9.2858ZM33.6856 15.4141V8.22913H31.082V15.9333C31.082 16.515 31.5466 16.9725 32.1166 16.9725H38.7882V15.925H34.2116C34.0746 15.9245 33.9434 15.8697 33.8466 15.7724C33.7497 15.6752 33.6951 15.5434 33.6947 15.4058L33.6864 15.4141H33.6856ZM71.7163 9.27746V15.9425C71.7163 16.5233 72.1809 16.99 72.7592 16.99H79.8697V15.9516H74.8542C74.7161 15.9516 74.5835 15.8971 74.4851 15.7998C74.3867 15.7026 74.3303 15.5703 74.3281 15.4316V12.8516H79.7809V11.8308H74.3281V9.78746C74.3281 9.49746 74.5654 9.2683 74.8542 9.2683H79.8688V8.22913H72.7584C72.482 8.23001 72.2172 8.3408 72.0219 8.53725C71.8266 8.73371 71.7167 8.99985 71.7163 9.27746ZM89.5389 12.095H86.2069V9.17996H84.9889V16.18H86.2069V13.23H89.5389V16.18H90.7569V9.17996H89.5389V12.095ZM96.2536 9.0558C94.1147 9.0558 92.598 10.7025 92.598 12.675V12.6925C92.598 14.665 94.0881 16.2941 96.2362 16.2941C98.3843 16.2941 99.8919 14.6475 99.8919 12.675V12.6575C99.8919 10.685 98.4017 9.0558 96.2536 9.0558ZM98.6033 12.7016C98.6033 14.0575 97.6392 15.1583 96.2536 15.1583C94.8689 15.1583 93.8865 14.04 93.8865 12.675V12.6575C93.8865 11.3016 94.8515 10.2008 96.2362 10.2008C97.6218 10.2008 98.6033 11.3191 98.6033 12.6841V12.7016ZM100.839 10.325H103.057V16.18H104.284V10.325H106.502V9.17996H100.839V10.325ZM109.228 13.2125H112.726V12.1041H109.228V10.2808H113.174V9.1808H108.01V16.1808H113.226V15.08H109.228V13.2133V13.2125ZM116.295 9.17996H115.067V16.18H119.959V15.0616H116.295V9.17996ZM124.413 12.12C123.071 11.8033 122.747 11.5558 122.747 11.0191V11.0016C122.747 10.5433 123.167 10.1741 123.877 10.1741C124.518 10.1741 125.14 10.4208 125.772 10.8958L126.429 9.96246C125.719 9.38996 124.912 9.08163 123.904 9.08163C122.519 9.08163 121.529 9.90996 121.529 11.1158V11.1333C121.529 12.4283 122.361 12.8683 123.852 13.2208C125.149 13.52 125.421 13.7925 125.421 14.295V14.3116C125.421 14.8316 124.947 15.1925 124.184 15.1925C123.326 15.1925 122.65 14.8583 121.984 14.2858L121.247 15.1666C122.044 15.8924 123.083 16.2914 124.158 16.285C125.622 16.285 126.648 15.5016 126.648 14.1975V14.1808C126.648 13.0175 125.894 12.4891 124.421 12.1283L124.413 12.12ZM136.309 12.9483L135.38 12.455C135.162 12.9205 134.913 13.3707 134.634 13.8025L133.442 12.5783C134.371 12.2266 134.976 11.68 134.976 10.7558V10.7383C134.976 9.79663 134.231 9.04746 133.127 9.04746C131.882 9.04746 131.128 9.86663 131.128 10.8175V10.835C131.128 11.3458 131.303 11.7766 131.706 12.2966C130.751 12.6933 130.216 13.3441 130.216 14.2425V14.26C130.216 15.4666 131.198 16.2591 132.504 16.2591C133.337 16.2591 134.038 15.9066 134.634 15.3525L135.564 16.3025L136.484 15.6425L135.38 14.5241C135.739 14.0408 136.046 13.4941 136.326 12.9308L136.309 12.9483ZM132.267 10.87C132.267 10.3866 132.609 10.0341 133.1 10.0341C133.556 10.0341 133.889 10.3508 133.889 10.8258V10.8441C133.889 11.3458 133.513 11.6716 132.793 11.9358C132.408 11.5041 132.267 11.2491 132.267 10.8966V10.87ZM132.618 15.2641C131.943 15.2641 131.452 14.8325 131.452 14.2425V14.2258C131.452 13.7758 131.733 13.3441 132.381 13.0625L133.933 14.6566C133.538 15.035 133.1 15.2641 132.618 15.2641ZM145.987 11.4083V11.39C145.987 10.7825 145.777 10.2633 145.409 9.8758C144.962 9.4358 144.278 9.17996 143.401 9.17996H140.298V16.18H141.525V13.7416H143.059L144.768 16.1808H146.224L144.339 13.5308C145.304 13.2491 145.996 12.5625 145.996 11.4091H145.987V11.4083ZM141.516 12.65V10.2983H143.296C144.199 10.2983 144.743 10.7125 144.743 11.4608V11.4783C144.743 12.1916 144.182 12.6491 143.305 12.6491H141.516V12.65ZM149.091 13.2125H152.588V12.1041H149.091V10.2808H153.035V9.1808H147.863V16.1808H153.079V15.08H149.091V13.2133V13.2125ZM157.62 12.12C156.28 11.8033 155.955 11.5558 155.955 11.0191V11.0016C155.955 10.5433 156.376 10.1741 157.086 10.1741C157.726 10.1741 158.348 10.4208 158.979 10.8958L159.637 9.96246C158.927 9.38996 158.121 9.08163 157.113 9.08163C155.727 9.08163 154.736 9.90996 154.736 11.1158V11.1333C154.736 12.4283 155.569 12.8683 157.059 13.2208C158.357 13.52 158.629 13.7925 158.629 14.295V14.3116C158.629 14.8316 158.155 15.1925 157.393 15.1925C156.533 15.1925 155.859 14.8583 155.193 14.2858L154.456 15.1666C155.252 15.8924 156.291 16.2914 157.366 16.285C158.831 16.285 159.856 15.5016 159.856 14.1975V14.1808C159.856 13.0175 159.102 12.4891 157.629 12.1283L157.62 12.12ZM164.871 9.0558C162.732 9.0558 161.215 10.7025 161.215 12.675V12.6925C161.215 14.665 162.706 16.2941 164.854 16.2941C167.001 16.2941 168.509 14.6475 168.509 12.675V12.6575C168.509 10.685 167.018 9.0558 164.871 9.0558ZM167.22 12.7016C167.22 14.0575 166.256 15.1583 164.871 15.1583C163.485 15.1583 162.504 14.04 162.504 12.675V12.6575C162.504 11.3016 163.468 10.2008 164.854 10.2008C166.238 10.2008 167.22 11.3191 167.22 12.6841V12.7016ZM176.049 11.4083V11.39C176.049 10.7825 175.838 10.2633 175.47 9.8758C175.022 9.4358 174.33 9.17996 173.462 9.17996H170.359V16.18H171.586V13.7416H173.12L174.83 16.1808H176.285L174.4 13.5308C175.364 13.2491 176.057 12.5625 176.057 11.4091H176.049V11.4083ZM171.577 12.65V10.2983H173.357C174.26 10.2983 174.803 10.7125 174.803 11.4608V11.4783C174.803 12.1916 174.242 12.6491 173.365 12.6491H171.577V12.65ZM177.302 10.325H179.52V16.18H180.747V10.325H182.965V9.17996H177.302V10.325ZM187.208 12.12C185.867 11.8033 185.543 11.5558 185.543 11.0191V11.0016C185.543 10.5433 185.964 10.1741 186.674 10.1741C187.313 10.1741 187.936 10.4208 188.567 10.8958L189.225 9.96246C188.515 9.38996 187.708 9.08163 186.699 9.08163C185.315 9.08163 184.324 9.90996 184.324 11.1158V11.1333C184.324 12.4283 185.157 12.8683 186.647 13.2208C187.945 13.52 188.216 13.7925 188.216 14.295V14.3116C188.216 14.8316 187.743 15.1925 186.981 15.1925C186.121 15.1925 185.446 14.8583 184.78 14.2858L184.044 15.1666C184.84 15.8924 185.879 16.2914 186.954 16.285C188.418 16.285 189.444 15.5016 189.444 14.1975V14.1808C189.444 13.0175 188.69 12.4891 187.217 12.1283L187.208 12.12Z" fill="white"/>
</g>
<defs>
<clipPath id="clip0_1063_2">
<rect width="200" height="25" fill="white"/>
</clipPath>
</defs>
</svg>