<svg width="191" height="25" viewBox="0 0 191 25" fill="none" xmlns="http://www.w3.org/2000/svg">
<path d="M17.7185 2.12684C14.8813 -0.709272 10.2315 -0.709272 7.385 2.12684L2.13435 7.3574C-0.712102 10.1926 -0.712102 14.825 2.13435 17.6518L7.385 22.8824C10.2222 25.7092 14.8813 25.7092 17.7185 22.8824L22.9691 17.6509C25.8156 14.8157 25.8156 10.1842 22.9691 7.3574L17.7185 2.12684ZM9.47116 20.188H9.43593C9.23567 20.1884 9.04296 20.1116 8.89802 19.9736C8.75308 19.8356 8.66711 19.647 8.65802 19.4472C8.65329 19.3459 8.66889 19.2446 8.70392 19.1493C8.73895 19.0541 8.7927 18.9668 8.862 18.8926C8.96631 18.7809 9.10131 18.7024 9.25008 18.667C9.39885 18.6316 9.55478 18.6408 9.69833 18.6935C9.84188 18.7462 9.96667 18.84 10.0571 18.9632C10.1474 19.0864 10.1994 19.2335 10.2064 19.3861C10.2135 19.5907 10.1392 19.7898 9.99997 19.9399C9.86069 20.0901 9.66762 20.1793 9.46282 20.188H9.47116ZM18.7968 16.9565C17.7268 18.6463 16.3212 19.8268 15.0315 20.1259H14.9963C14.7687 20.1677 14.5378 20.1884 14.3064 20.188C13.4757 20.188 12.8832 19.8704 12.4678 19.5972C12.0284 19.3006 11.6401 18.9348 11.3181 18.5139C9.10029 15.6704 8.95009 10.3509 8.94081 9.75277C8.91485 8.33517 9.11698 6.4148 10.2315 5.32314C10.7711 4.7861 11.4516 4.51295 12.2472 4.51295H12.3797C13.1753 4.51295 13.8558 4.7861 14.4038 5.32314C15.5173 6.42406 15.7204 8.34351 15.6944 9.75277C15.6675 11.2324 15.394 14.0852 13.8642 16.6472C13.8022 16.7507 13.714 16.8361 13.6086 16.895C13.5032 16.9538 13.3841 16.9839 13.2633 16.9824C13.1391 16.9814 13.0173 16.9479 12.9101 16.8852C12.7529 16.79 12.6396 16.6368 12.5948 16.4588C12.5501 16.2808 12.5774 16.0923 12.6709 15.9342C13.7492 14.138 14.2619 12.1657 14.3064 9.72591C14.3333 8.10554 14.0236 6.89073 13.4228 6.29999C13.1484 6.02777 12.8035 5.89536 12.3797 5.89536H12.2555C11.8318 5.89536 11.4859 6.02777 11.2124 6.30091C10.6199 6.89073 10.3019 8.10647 10.3372 9.72684C10.3733 11.725 10.8499 15.6435 12.4233 17.6602C12.6802 17.9861 12.9537 18.25 13.2365 18.4352C13.5109 18.6204 13.8299 18.7963 14.3157 18.7963C14.4483 18.7963 14.5892 18.787 14.7394 18.7611C15.6407 18.5407 16.7727 17.5454 17.6211 16.2074C17.6833 16.1066 17.7705 16.0236 17.8743 15.9665C17.9782 15.9093 18.0951 15.8801 18.2136 15.8815C18.3711 15.8809 18.5242 15.9337 18.6478 16.0312C18.7714 16.1288 18.8583 16.2653 18.8941 16.4185C18.9377 16.6037 18.9034 16.7889 18.8051 16.938L18.7968 16.9565ZM44.936 7.87036C41.4878 7.87036 39.4192 9.99258 39.4192 12.6259C39.4192 15.2583 41.4878 17.3722 44.936 17.3722C48.3832 17.3722 50.4601 15.25 50.4601 12.6259C50.4601 10.0018 48.3934 7.87036 44.936 7.87036ZM44.936 16.3417C43.2911 16.3417 42.0274 14.6768 42.0274 12.6259C42.0274 10.5741 43.2911 8.89165 44.935 8.89165C46.5799 8.89165 47.8529 10.5648 47.8529 12.6259C47.8529 14.6861 46.5882 16.3417 44.936 16.3417ZM50.9302 9.28147H54.5629V16.9778H57.3028V9.28147H60.3708V8.22499H50.9302V9.28147ZM61.3685 9.28147H64.4356V16.9778H67.1754V9.28147H70.8174V8.22499H61.3675V9.28147H61.3685ZM33.9609 15.4102V8.22499H31.336V15.9296C31.3357 16.0664 31.3624 16.202 31.4147 16.3284C31.467 16.4548 31.5439 16.5697 31.6408 16.6664C31.7378 16.763 31.8529 16.8395 31.9797 16.8916C32.1064 16.9436 32.2421 16.97 32.3791 16.9694H39.1058V15.9213H34.4912C34.3533 15.921 34.221 15.8663 34.1234 15.7689C34.0257 15.6716 33.9707 15.5396 33.9702 15.4018L33.9609 15.4102ZM72.3055 9.26573V15.9324C72.3055 16.0702 72.3328 16.2066 72.3857 16.3339C72.4387 16.4611 72.5163 16.5767 72.614 16.6739C72.7118 16.7711 72.8279 16.8481 72.9555 16.9004C73.0832 16.9527 73.2199 16.9793 73.3579 16.9787H80.526V15.9407H75.47C75.3309 15.941 75.1972 15.8865 75.098 15.7892C74.9987 15.6918 74.9419 15.5593 74.9397 15.4204V12.8407H80.4379V11.8194H74.9397V9.77591C74.9397 9.4861 75.1789 9.25739 75.47 9.25739H80.526V8.21665H73.3588C72.784 8.21665 72.3065 8.68332 72.3065 9.2648L72.3055 9.26573ZM90.2799 12.087H86.9207V9.17221H85.6922V16.1731H86.9207V13.2231H90.2799V16.1731H91.5085V9.17314H90.2799V12.087ZM97.0493 9.05647C94.8927 9.05647 93.3628 10.7037 93.3628 12.6759V12.6935C93.3628 14.6657 94.8658 16.2954 97.0317 16.2954C99.1967 16.2954 100.717 14.6481 100.717 12.6759V12.6583C100.717 10.6861 99.2143 9.05647 97.0493 9.05647ZM99.4183 12.7028C99.4183 14.0583 98.4456 15.1592 97.0493 15.1592C95.652 15.1592 94.6627 14.0407 94.6627 12.6759V12.6583C94.6627 11.3018 95.6344 10.2018 97.0317 10.2018C98.428 10.2018 99.4183 11.3194 99.4183 12.6842V12.7028ZM101.671 10.3083H103.908V16.1731H105.145V10.3083H107.382V9.17221H101.671V10.3083ZM110.131 13.2055H113.658V12.0963H110.131V10.2731H114.109V9.17221H108.893V16.1731H114.161V15.0722H110.131V13.2055ZM117.252 9.17221H116.014V16.1731H120.947V15.0546H117.252V9.17221ZM125.434 12.1167C124.082 11.7991 123.755 11.5528 123.755 11.0157V10.9981C123.755 10.5398 124.18 10.1704 124.895 10.1704C125.541 10.1704 126.168 10.4167 126.805 10.8926L127.467 9.95925C126.752 9.38702 125.939 9.07869 124.921 9.07869C123.525 9.07869 122.526 9.90647 122.526 11.113V11.1305C122.526 12.425 123.367 12.8648 124.869 13.2176C126.177 13.5167 126.451 13.7898 126.451 14.2917V14.3092C126.451 14.8287 125.974 15.1889 125.204 15.1889C124.338 15.1889 123.658 14.8555 122.986 14.2824L122.244 15.163C123.047 15.8892 124.094 16.2883 125.178 16.2815C126.654 16.2815 127.688 15.4981 127.688 14.1944V14.1768C127.688 13.0148 126.929 12.4861 125.443 12.125L125.434 12.1157V12.1167ZM137.434 12.9435L136.497 12.45C136.278 12.9157 136.027 13.3659 135.745 13.7972L134.544 12.5731C135.48 12.2213 136.09 11.675 136.09 10.7509V10.7324C136.09 9.79073 135.339 9.04258 134.226 9.04258C132.97 9.04258 132.21 9.8611 132.21 10.812V10.8305C132.21 11.3398 132.387 11.7722 132.793 12.2917C131.83 12.688 131.291 13.3398 131.291 14.238V14.2555C131.291 15.462 132.28 16.2546 133.598 16.2546C134.437 16.2546 135.145 15.9028 135.745 15.3472L136.683 16.2981L137.611 15.638L136.497 14.5194C136.86 14.0352 137.169 13.4889 137.451 12.9259L137.434 12.9435ZM133.359 10.8648C133.359 10.3805 133.704 10.0287 134.199 10.0287C134.659 10.0287 134.994 10.3454 134.994 10.8213V10.8389C134.994 11.3407 134.614 11.6667 133.889 11.9305C133.501 11.4991 133.359 11.2435 133.359 10.8917V10.8648ZM133.713 15.2592C133.032 15.2592 132.537 14.8278 132.537 14.238V14.2194C132.537 13.7713 132.82 13.3398 133.474 13.0574L135.039 14.6518C134.641 15.0305 134.199 15.2592 133.713 15.2592ZM147.191 11.4V11.3824C147.191 10.775 146.978 10.2555 146.607 9.86851C146.156 9.42777 145.467 9.17221 144.582 9.17221H141.453V16.1731H142.691V13.7342H144.238L145.962 16.1731H147.429L145.528 13.5222C146.501 13.2407 147.199 12.5537 147.199 11.4H147.191ZM142.683 12.6417V10.2907H144.477C145.387 10.2907 145.935 10.7046 145.935 11.4528V11.4713C145.935 12.1842 145.37 12.6417 144.486 12.6417H142.683ZM150.326 13.2055H153.844V12.0963H150.326V10.2731H154.304V9.17221H149.088V16.1731H154.347V15.0722H150.326V13.2055ZM158.922 12.1167C157.569 11.7991 157.242 11.5528 157.242 11.0157V10.9981C157.242 10.5398 157.667 10.1704 158.383 10.1704C159.028 10.1704 159.656 10.4167 160.292 10.8926L160.955 9.95925C160.239 9.38702 159.426 9.07869 158.409 9.07869C157.012 9.07869 156.014 9.90647 156.014 11.113V11.1305C156.014 12.425 156.854 12.8648 158.356 13.2176C159.664 13.5167 159.938 13.7898 159.938 14.2917V14.3092C159.938 14.8287 159.461 15.1889 158.692 15.1889C157.825 15.1889 157.145 14.8555 156.473 14.2824L155.731 15.163C156.535 15.8891 157.582 16.2881 158.665 16.2815C160.141 16.2815 161.176 15.4981 161.176 14.1944V14.1768C161.176 13.0148 160.416 12.4861 158.931 12.125L158.922 12.1157V12.1167ZM166.233 9.05647C164.076 9.05647 162.547 10.7037 162.547 12.6759V12.6935C162.547 14.6657 164.05 16.2954 166.215 16.2954C168.381 16.2954 169.901 14.6481 169.901 12.6759V12.6583C169.901 10.6861 168.399 9.05647 166.233 9.05647ZM168.602 12.7028C168.602 14.0583 167.629 15.1592 166.233 15.1592C164.837 15.1592 163.846 14.0407 163.846 12.6759V12.6583C163.846 11.3018 164.819 10.2018 166.215 10.2018C167.612 10.2018 168.602 11.3194 168.602 12.6842V12.7028ZM177.505 11.4V11.3824C177.505 10.775 177.292 10.2555 176.922 9.86851C176.471 9.42777 175.772 9.17221 174.898 9.17221H171.768V16.1731H173.005V13.7342H174.553L176.276 16.1731H177.743L175.843 13.5222C176.815 13.2407 177.514 12.5537 177.514 11.4H177.505ZM172.997 12.6417V10.2907H174.791C175.701 10.2907 176.249 10.7046 176.249 11.4528V11.4713C176.249 12.1842 175.684 12.6417 174.8 12.6417H172.997ZM178.766 10.3083H181.002V16.1731H182.239V10.3083H184.475V9.17221H178.766V10.3083ZM188.758 12.1167C187.406 11.7991 187.079 11.5528 187.079 11.0157V10.9981C187.079 10.5398 187.503 10.1704 188.219 10.1704C188.865 10.1704 189.492 10.4167 190.128 10.8926L190.791 9.95925C190.076 9.38702 189.262 9.07869 188.245 9.07869C186.849 9.07869 185.85 9.90647 185.85 11.113V11.1305C185.85 12.425 186.69 12.8648 188.192 13.2176C189.501 13.5167 189.775 13.7898 189.775 14.2917V14.3092C189.775 14.8287 189.298 15.1889 188.528 15.1889C187.662 15.1889 186.982 14.8555 186.309 14.2824L185.568 15.163C186.371 15.8892 187.418 16.2883 188.502 16.2815C189.978 16.2815 191.012 15.4981 191.012 14.1944V14.1768C191.012 13.0148 190.252 12.4861 188.767 12.125L188.758 12.1157V12.1167Z" fill="currentColor"/>
</svg>