<svg width="38" height="38" viewBox="0 0 38 38" fill="none" xmlns="http://www.w3.org/2000/svg">
<rect width="38" height="38" rx="10" fill="#F5F5F5"/>
<path d="M26.97 17H10.97V25C10.97 28 11.97 29 14.97 29H22.97C25.97 29 26.97 28 26.97 25V17Z" fill="white" stroke="#292D32" stroke-width="1.5" stroke-linecap="round" stroke-linejoin="round"/>
<path d="M28.5 14V15C28.5322 15.2704 28.5026 15.5445 28.4134 15.8018C28.3243 16.0591 28.1779 16.2928 27.9854 16.4854C27.7928 16.6779 27.5591 16.8243 27.3018 16.9134C27.0445 17.0026 26.7704 17.0322 26.5 17H11.5C11.2287 17.0368 10.9525 17.0105 10.6931 16.923C10.4336 16.8355 10.1979 16.6893 10.0043 16.4957C9.81069 16.3021 9.66444 16.0664 9.57696 15.8069C9.48948 15.5475 9.46314 15.2713 9.49999 15V14C9.46314 13.7287 9.48948 13.4525 9.57696 13.1931C9.66444 12.9336 9.81069 12.6979 10.0043 12.5043C10.1979 12.3107 10.4336 12.1644 10.6931 12.077C10.9525 11.9895 11.2287 11.9631 11.5 12H26.5C26.7704 11.9678 27.0445 11.9974 27.3018 12.0866C27.5591 12.1757 27.7928 12.3221 27.9854 12.5146C28.1779 12.7071 28.3243 12.9409 28.4134 13.1982C28.5026 13.4554 28.5322 13.7296 28.5 14Z" fill="white" stroke="#292D32" stroke-width="1.5" stroke-linecap="round" stroke-linejoin="round"/>
<path d="M18.64 12.003H13.12C12.9556 11.8247 12.8668 11.5894 12.8724 11.3469C12.878 11.1044 12.9775 10.8736 13.15 10.703L14.572 9.28099C14.7517 9.10328 14.9942 9.00362 15.247 9.00362C15.4997 9.00362 15.7423 9.10328 15.922 9.28099L18.64 12.003Z" fill="white" stroke="#292D32" stroke-width="1.5" stroke-linecap="round" stroke-linejoin="round"/>
<path d="M24.87 12.003H19.35L22.07 9.28099C22.2497 9.10328 22.4922 9.00362 22.745 9.00362C22.9977 9.00362 23.2403 9.10328 23.42 9.28099L24.84 10.703C25.0125 10.8736 25.112 11.1044 25.1176 11.3469C25.1232 11.5894 25.0344 11.8247 24.87 12.003Z" fill="white" stroke="#292D32" stroke-width="1.5" stroke-linecap="round" stroke-linejoin="round"/>
<path d="M15.94 17V22.14C15.9391 22.3209 15.9874 22.4987 16.0796 22.6544C16.1718 22.8101 16.3045 22.9378 16.4635 23.024C16.6226 23.1102 16.8021 23.1517 16.9829 23.1439C17.1636 23.1362 17.3389 23.0795 17.49 22.98L18.43 22.36C18.5933 22.2525 18.7845 22.1952 18.98 22.1952C19.1755 22.1952 19.3667 22.2525 19.53 22.36L20.42 22.96C20.5704 23.059 20.7448 23.1156 20.9247 23.1238C21.1046 23.132 21.2833 23.0914 21.4421 23.0064C21.6008 22.9214 21.7337 22.7951 21.8266 22.6408C21.9195 22.4866 21.9691 22.3101 21.97 22.13V17H15.94Z" stroke="#292D32" stroke-width="1.5" stroke-linecap="round" stroke-linejoin="round"/>
</svg>