<svg width="20" height="20" viewBox="0 0 26 25" fill="none" xmlns="http://www.w3.org/2000/svg">
<path d="M11.3334 22.651C8.17197 22.651 5.49237 21.5534 3.29463 19.3581C1.09821 17.1642 0 14.4866 0 11.3255C0 8.16438 1.09821 5.48619 3.29463 3.29092C5.49105 1.09566 8.17066 -0.0013165 11.3334 1.18568e-06C14.4962 0.00131887 17.1752 1.09895 19.3703 3.2929C21.5654 5.48684 22.6636 8.16438 22.6649 11.3255C22.6649 12.6985 22.4217 14.0274 21.9352 15.3122C21.4487 16.5969 20.8093 17.6959 20.017 18.609L24.7904 22.4733C24.975 22.6577 25.0738 22.885 25.087 23.1552C25.0989 23.4227 25 23.6618 24.7904 23.8726C24.5794 24.0835 24.3461 24.1889 24.0903 24.1889C23.8346 24.1889 23.6012 24.0835 23.3903 23.8726L18.6188 20.0064C17.63 20.8484 16.4929 21.5 15.2075 21.9612C13.9221 22.4224 12.6301 22.653 11.3315 22.653M11.3315 20.6765C13.955 20.6765 16.1706 19.7739 17.9781 17.9686C19.7843 16.1634 20.6874 13.949 20.6874 11.3255C20.6874 8.702 19.7849 6.48829 17.9801 4.68437C16.1752 2.88046 13.9603 1.97785 11.3354 1.97653C8.71053 1.97653 6.495 2.87914 4.68882 4.68437C2.88264 6.4896 1.97889 8.70332 1.97757 11.3255C1.97625 13.9477 2.87934 16.1614 4.68684 17.9666C6.49434 19.7719 8.70922 20.6745 11.3315 20.6745" fill="black"/>
</svg>